
  <svg xmlns="http://www.w3.org/2000/svg" viewBox="0 0 24 24">
    <path fill="#0B0B0A" fill-rule="evenodd" d="M23.991 8.21l-.008-.046c-.006-.029-.01-.058-.018-.086l-.017-.05a1.265 1.265 0 0 0-.05-.125.533.533 0 0 0-.035-.068c-.008-.017-.019-.033-.029-.048a.723.723 0 0 0-.078-.108.92.92 0 0 0-.052-.056c-.014-.014-.026-.028-.04-.04a1.71 1.71 0 0 0-.06-.05l-.046-.035c-.006-.003-.011-.009-.017-.012L12.572.173a1.032 1.032 0 0 0-1.144 0L.46 7.486c-.006.003-.012.009-.018.013a.926.926 0 0 0-.105.085c-.014.011-.027.026-.04.039a.719.719 0 0 0-.088.1.928.928 0 0 0-.073.112.832.832 0 0 0-.035.068c-.007.016-.016.033-.022.05a.894.894 0 0 0-.027.075c-.006.016-.012.033-.016.05-.008.028-.013.057-.018.087-.003.015-.007.029-.008.045a.984.984 0 0 0-.01.134v7.312c0 .045.004.09.01.135.001.014.005.03.008.044.005.03.01.058.018.087.004.017.01.034.016.05.008.025.016.05.027.076l.022.05.035.068a1.65 1.65 0 0 0 .11.155.71.71 0 0 0 .092.096.926.926 0 0 0 .104.084c.006.004.012.01.018.013l10.968 7.313a1.03 1.03 0 0 0 1.144 0l10.969-7.313c.006-.003.011-.009.017-.012l.047-.036a1.71 1.71 0 0 0 .058-.05c.015-.012.027-.026.04-.04a.906.906 0 0 0 .131-.163l.03-.047a.75.75 0 0 0 .035-.069.734.734 0 0 0 .023-.05c.01-.025.018-.05.026-.075l.017-.05.018-.087.008-.044a1.02 1.02 0 0 0 .009-.135V8.344a.984.984 0 0 0-.009-.134zm-10.96-5.251l8.08 5.386-3.608 2.414-4.472-2.99v-4.81zm-2.062 0v4.81l-4.471 2.99-3.61-2.414 8.08-5.386zm-8.906 7.315L4.643 12l-2.58 1.726v-3.452zm8.906 10.767l-8.08-5.386 3.609-2.414 4.47 2.99v4.81zM12 14.44L8.353 12 12 9.56 15.648 12 12 14.44zm1.031 6.601v-4.81l4.472-2.99 3.609 2.414-8.08 5.386zm8.906-7.315L19.358 12l2.58-1.726v3.452z"/>
  </svg>
