
  <svg xmlns="http://www.w3.org/2000/svg" viewBox="0 0 23 23">
    <path fill="#EC4989" fill-rule="evenodd" d="M16.989 19.645c-.1-.592-.624-3.475-1.913-7.014 3.172-.507 5.918.363 6.121.429a9.824 9.824 0 0 1-4.208 6.585zM11.5 21.322a9.783 9.783 0 0 1-6.258-2.252c.13.106.22.172.22.172s1.883-4.105 7.708-6.135c.022-.008.044-.013.066-.02 1.382 3.59 1.952 6.597 2.098 7.456a9.79 9.79 0 0 1-3.834.779zm-9.823-9.823c0-.104.006-.207.008-.31.175.005 5.027.114 10.084-1.399.281.55.55 1.112.796 1.67-.13.035-.258.074-.386.118-5.3 1.712-7.989 6.48-7.989 6.48l.004.005a9.783 9.783 0 0 1-2.517-6.564zM7.31 2.62a58.741 58.741 0 0 1 3.647 5.658c-4.716 1.253-8.81 1.203-9.068 1.2a9.824 9.824 0 0 1 5.42-6.858zm1.838-.654l-.002.002-.03.006.032-.008zm8.839 2.166c-.025.037-1.423 2.166-5.131 3.555a49.9 49.9 0 0 0-3.67-5.73A9.822 9.822 0 0 1 11.5 1.68c2.485 0 4.756.928 6.486 2.452zm3.332 7.271c-.142-.031-3.466-.746-6.84-.322-.07-.168-.14-.337-.213-.506a29.516 29.516 0 0 0-.653-1.425c3.879-1.583 5.453-3.86 5.472-3.886a9.782 9.782 0 0 1 2.234 6.139zm1.448-2.216a11.54 11.54 0 0 0-.672-2.163 11.493 11.493 0 0 0-4.165-5.057A11.465 11.465 0 0 0 15.977.905a11.522 11.522 0 0 0-6.793-.67c-.738.15-1.466.378-2.161.67a11.53 11.53 0 0 0-6.79 8.28 11.605 11.605 0 0 0 0 4.632c.151.738.377 1.466.672 2.16.286.681.645 1.34 1.06 1.955.411.608.883 1.179 1.402 1.701a11.522 11.522 0 0 0 3.655 2.462c.696.295 1.424.52 2.162.67.757.157 1.536.235 2.317.235.779 0 1.558-.078 2.315-.235a11.459 11.459 0 0 0 4.114-1.73c.61-.412 1.182-.883 1.703-1.402.519-.522.992-1.093 1.402-1.701a11.483 11.483 0 0 0 1.732-4.115 11.635 11.635 0 0 0 0-4.631z"/>
  </svg>
