<svg xmlns="http://www.w3.org/2000/svg" viewBox="0 0 25 27">
  <path fill="#1769FF" fill-rule="evenodd" d="M15.448 8.916h6.121V7.034h-6.121v1.882zm1.7 3.926c-.39.426-.637 1.003-.737 1.731h4.76c-.05-.777-.297-1.364-.735-1.768-.443-.402-.988-.602-1.64-.602-.707 0-1.259.213-1.649.639zm4.089-2.181c.738.348 1.345.9 1.824 1.655.436.665.716 1.436.844 2.312.075.513.105 1.255.092 2.221h-7.696c.046 1.121.41 1.908 1.106 2.359.421.28.928.422 1.524.422.626 0 1.138-.172 1.531-.513.216-.185.407-.442.57-.77h2.82c-.075.662-.417 1.337-1.024 2.022-.945 1.087-2.27 1.631-3.974 1.631a5.55 5.55 0 0 1-3.72-1.376c-1.077-.917-1.613-2.41-1.613-4.477 0-1.939.485-3.425 1.454-4.46.972-1.032 2.23-1.552 3.777-1.552.92 0 1.748.176 2.485.526zM3.89 14.27v4.034h3.468c.62 0 1.104-.09 1.447-.267.627-.33.94-.958.94-1.888 0-.789-.302-1.328-.91-1.623-.34-.164-.816-.25-1.428-.256H3.89zm0-5.17v3.338h3.473c.619 0 1.123-.125 1.512-.376.386-.25.58-.693.58-1.327 0-.706-.255-1.171-.766-1.399-.443-.156-1.006-.236-1.69-.236H3.89zM1 21.126V6h6.903c1.742.027 2.975.564 3.702 1.612.437.643.655 1.412.655 2.308 0 .923-.218 1.667-.66 2.228-.248.314-.61.602-1.09.86.728.283 1.277.728 1.651 1.336.37.608.556 1.348.556 2.217 0 .896-.212 1.7-.637 2.412-.27.47-.607.868-1.012 1.19-.455.37-.992.622-1.613.76a9.379 9.379 0 0 1-2.018.203H1z"/>
</svg>
