<svg viewBox="0 0 329 266" xmlns="http://www.w3.org/2000/svg" xmlns:xlink="http://www.w3.org/1999/xlink"><defs><path id="a" d="M0 0h329v266H0z"/></defs><g fill="none" fill-rule="evenodd"><mask id="b" fill="#fff"><use xlink:href="#a"/></mask><use fill="#FFF" xlink:href="#a"/><path d="M36.974 103.6h109.452c3.12 0 4.252.325 5.393.935a6.36 6.36 0 0 1 2.646 2.646c.61 1.14.935 2.272.935 5.393v15.652c0 3.12-.325 4.252-.935 5.393a6.36 6.36 0 0 1-2.646 2.646c-1.14.61-2.272.935-5.393.935H36.974c-3.12 0-4.252-.325-5.393-.935a6.36 6.36 0 0 1-2.646-2.646c-.61-1.14-.935-2.272-.935-5.393v-15.652c0-3.12.325-4.252.935-5.393a6.36 6.36 0 0 1 2.646-2.646c1.14-.61 2.272-.935 5.393-.935zM36.974 147h245.252c3.12 0 4.252.325 5.393.935a6.36 6.36 0 0 1 2.646 2.646c.61 1.14.935 2.272.935 5.393v15.652c0 3.12-.325 4.252-.935 5.393a6.36 6.36 0 0 1-2.646 2.646c-1.14.61-2.272.935-5.393.935H36.974c-3.12 0-4.252-.325-5.393-.935a6.36 6.36 0 0 1-2.646-2.646c-.61-1.14-.935-2.272-.935-5.393v-15.652c0-3.12.325-4.252.935-5.393a6.36 6.36 0 0 1 2.646-2.646c1.14-.61 2.272-.935 5.393-.935zM172.774 103.6h109.452c3.12 0 4.252.325 5.393.935a6.36 6.36 0 0 1 2.646 2.646c.61 1.14.935 2.272.935 5.393v15.652c0 3.12-.325 4.252-.935 5.393a6.36 6.36 0 0 1-2.646 2.646c-1.14.61-2.272.935-5.393.935H172.774c-3.12 0-4.252-.325-5.393-.935a6.36 6.36 0 0 1-2.646-2.646c-.61-1.14-.935-2.272-.935-5.393v-15.652c0-3.12.325-4.252.935-5.393a6.36 6.36 0 0 1 2.646-2.646c1.14-.61 2.272-.935 5.393-.935z" fill="#F8F8F8" mask="url(#b)"/><text mask="url(#b)" font-family="AvenirNext-Regular, Avenir Next" font-size="11.2" fill="#616161"><tspan x="36.4" y="131.4">Jim</tspan></text><text mask="url(#b)" font-family="AvenirNext-Regular, Avenir Next" font-size="11.2" fill="#616161"><tspan x="36.4" y="169.2">Email Address</tspan></text><text mask="url(#b)" font-family="AvenirNext-Regular, Avenir Next" font-size="11.2" fill="#616161"><tspan x="172.2" y="131.4">Gregor</tspan></text><text mask="url(#b)" font-family="AvenirNext-Regular, Avenir Next" font-size="7" fill="#252525"><tspan x="36.4" y="116.2">First Name</tspan></text><text mask="url(#b)" font-family="AvenirNext-Regular, Avenir Next" font-size="7" fill="#252525"><tspan x="172.2" y="116.2">Last Name</tspan></text><path d="M35 198.8h82.6a7 7 0 0 1 7 7v19.6a7 7 0 0 1-7 7H35a7 7 0 0 1-7-7v-19.6a7 7 0 0 1 7-7z" fill="#FFA0BF" mask="url(#b)"/><text mask="url(#b)" font-family="AvenirNext-Medium, Avenir Next" font-size="11.2" font-weight="400" fill="#FFF"><tspan x="47.6" y="221">Subscribe</tspan></text><text mask="url(#b)" font-family="AvenirNext-Medium, Avenir Next" font-size="16.8" font-weight="400" letter-spacing=".84" fill="#6C6C6C"><tspan x="36.4" y="45">Your Inbox Just Got Better</tspan></text><text mask="url(#b)" font-family="AvenirNext-Regular, Avenir Next" font-size="11.2" fill="#939393"><tspan x="36.4" y="64.2">Sign up for our newsletter to be informed about </tspan> <tspan x="36.4" y="81">special promotions and new product releases.</tspan></text></g></svg>
