<svg viewBox="0 0 50 50" xmlns="http://www.w3.org/2000/svg"><g fill="none" fill-rule="evenodd"><circle fill="#FFF" cx="24.85" cy="24.85" r="24.85"/><path d="M16.213 29.047c-.401 0-.778-.107-1.097-.29v1.398c0 .591.49 1.076 1.097 1.076h9.918c1.167 0 2.12.936 2.12 2.081 0 1.146-.953 2.081-2.12 2.081-1.167 0-2.12-.931-2.12-2.08 0-.383.105-.741.292-1.05H19.58c.187.305.292.667.292 1.05 0 1.145-.953 2.08-2.12 2.08-1.167 0-2.12-.931-2.12-2.08 0-.39.113-.757.303-1.07-1.054-.133-1.87-1.02-1.87-2.088V18.86l-2.544-1.054a.511.511 0 0 1-.28-.675.528.528 0 0 1 .688-.275l2.867 1.183.05.023c.004.004.008.004.012.008a.36.36 0 0 1 .031.019c.008.008.016.011.023.02l.016.01c.012.008.02.016.027.023l.012.012a25209.133 25209.133 0 0 0 .035.034c.004.008.011.016.015.023l.012.02c.004.007.008.01.012.018.008.008.011.016.015.023.004.004.004.012.008.016.008.011.012.019.016.03 0 .004.004.012.004.015l.011.035c0 .007.004.011.004.019.004.011.004.019.008.03 0 .012.004.023.004.035.004.007.004.011.004.015a.23.23 0 0 1 .004.053v1.81l13.216 1.791c.008 0 .012.004.016.004.012 0 .02 0 .031.004.004 0 .012.003.02.003.007 0 .019.004.027.008s.015.004.023.008a5113.037 5113.037 0 0 0 .07.034.082.082 0 0 0 .023.015l.02.012c.008.004.015.011.023.015s.012.012.02.015l.02.02c.003.003.01.007.015.015.004.007.011.011.015.019.004.007.012.011.016.019.008.008.012.011.015.019.004.008.012.015.016.023l.012.019.011.023c.004.004.008.011.012.019l.012.027c.004.007.004.015.007.023.004.007.004.015.008.023.004.011.004.019.008.026 0 .008.004.016.004.023 0 .008.004.02.004.027a.048.048 0 0 1 .004.023V26.94c0 1.16-.965 2.107-2.147 2.107H16.213zm2.613 4.261c0-.58-.482-1.05-1.07-1.05-.587 0-1.069.474-1.069 1.05 0 .577.482 1.05 1.07 1.05.587 0 1.07-.47 1.07-1.05zm8.379 0c0-.58-.483-1.05-1.07-1.05-.587 0-1.07.474-1.07 1.05 0 .577.483 1.05 1.07 1.05.587 0 1.07-.47 1.07-1.05zm-3.523-8.893v1.689h2.269v-1.689h-2.27zm0-.563h2.269v-1.018l-2.27-.307v1.325zm4.055.563h-1.219v1.689h1.22v-1.689zm0-.563v-.776l-1.219-.165v.941h1.22zm-6.892.563v1.689h2.27v-1.689h-2.27zm0-.563h2.27V22.45l-2.27-.306v1.708zm-2.837.563v1.689h2.27v-1.689h-2.27zm0-.563h2.27v-1.785l-2.27-.307v2.092zm-2.892.563v1.689h2.325v-1.689h-2.325zm0-.563h2.325v-2.169l-2.325-.314v2.483zm8.566 2.815v1.35h2.269v-1.35h-2.27zm4.055 0h-1.219v1.35h.123c.602 0 1.096-.482 1.096-1.081v-.269zm-6.892 0v1.35h2.27v-1.35h-2.27zm-2.837 0v1.35h2.27v-1.35h-2.27zm-2.892 0v.273c0 .591.49 1.076 1.097 1.076h1.228v-1.349h-2.325z" fill="#FFA0BF" fill-rule="nonzero"/><path d="M37.865 20.756c0 3.73-3.048 6.755-6.808 6.755s-6.808-3.024-6.808-6.755S27.297 14 31.057 14s6.808 3.025 6.808 6.756z" stroke="#656565" stroke-width=".5" fill="#FFF"/><text font-family="Lato-Bold, Lato" font-size="8.82" font-weight="bold" fill="#6D6D6D" transform="translate(24.249 14)"><tspan x="4.372" y="10.059">8</tspan></text></g></svg>
