<svg viewBox="0 0 319 55" xmlns="http://www.w3.org/2000/svg" xmlns:xlink="http://www.w3.org/1999/xlink"><defs><path id="a" d="M0 0h318.78v54.67H0z"/><linearGradient x1="0%" y1="50%" x2="100%" y2="50%" id="c"><stop stop-color="#FFF" stop-opacity="0" offset="0%"/><stop stop-color="#FFF" stop-opacity=".948" offset="52.619%"/><stop stop-color="#FFF" offset="100%"/></linearGradient></defs><g fill="none" fill-rule="evenodd"><mask id="b" fill="#fff"><use xlink:href="#a"/></mask><use fill="#FFF" xlink:href="#a"/><path d="M265.65 17.71a3.08 3.08 0 1 1 0-6.16 3.08 3.08 0 0 1 0 6.16zm-6.93 4.107a8.074 8.074 0 0 1 6.545-3.337 8.074 8.074 0 0 1 6.545 3.337v2.823h-13.09v-2.823z" fill="#5B5B5B" mask="url(#b)"/><g mask="url(#b)" fill="#5B5B5B" stroke="#FFF"><path d="M242.905 17.414a3.736 3.736 0 0 0-3.731-3.732 3.736 3.736 0 0 0-3.732 3.732 3.736 3.736 0 0 0 3.732 3.731 3.736 3.736 0 0 0 3.731-3.731zm4.265 6.93c0 .583-.483 1.066-1.066 1.066-.283 0-.558-.117-.75-.317l-2.857-2.848a5.862 5.862 0 0 1-9.187-4.831 5.862 5.862 0 0 1 5.864-5.864 5.862 5.862 0 0 1 4.83 9.187l2.858 2.857c.191.192.308.467.308.75z" stroke-width=".847"/></g><g mask="url(#b)" font-family="Lato-Regular, Lato" font-size="12.32"><text transform="translate(12.32 34.65)"><tspan x="270" y="12" fill="#353535">Accessories</tspan></text><text transform="translate(12.32 34.65)"><tspan x="191" y="12" fill="#353535">Bottoms</tspan></text><text transform="translate(12.32 34.65)"><tspan x="134" y="12" fill="#353535">Tops</tspan></text><text transform="translate(12.32 34.65)"><tspan x="58" y="12" fill="#353535">Dresses</tspan></text><text transform="translate(12.32 34.65)"><tspan x="0" y="12" fill="#353535">New</tspan></text></g><g mask="url(#b)"><path fill="url(#c)" d="M0 0h24.64v22.33H0z" transform="translate(294.14 32.34)"/><path stroke="#979797" stroke-width=".77" stroke-linecap="round" d="M312.331 39.27l3.369 3.85-3.369 3.85"/></g><g mask="url(#b)"><path d="M286.319 19.77c-.36 0-.699-.097-.985-.263v1.264c0 .535.44.974.985.974h8.901c1.048 0 1.903.846 1.903 1.882s-.855 1.882-1.903 1.882a1.895 1.895 0 0 1-1.902-1.882c0-.345.094-.67.262-.95h-4.238c.167.276.262.605.262.95 0 1.036-.856 1.882-1.903 1.882a1.895 1.895 0 0 1-1.902-1.882c0-.352.1-.684.272-.967a1.916 1.916 0 0 1-1.68-1.89V10.557l-2.282-.953a.464.464 0 0 1-.252-.612.473.473 0 0 1 .618-.248l2.573 1.07.045.021.01.007c.008.003.018.01.029.017.007.007.014.01.02.018.004.003.011.006.015.01.01.007.017.014.024.02a10175.06 10175.06 0 0 0 .032.032l.01.01c.003.007.01.014.014.02.003.008.007.011.01.018l.01.017c.008.007.011.014.015.021.003.003.003.01.007.014.007.01.01.017.014.027l.003.014.01.031c0 .007.004.01.004.018.004.01.004.017.007.027 0 .01.004.021.004.031a.21.21 0 0 1 .007.062v1.637l11.862 1.62c.007 0 .01.003.014.003.01 0 .017 0 .028.004.003 0 .01.003.017.003.007 0 .018.004.025.007.006.004.013.004.02.007l.021.01a4105.328 4105.328 0 0 0 .042.021c.007.007.014.01.021.014.007.004.01.007.018.01l.02.014c.008.004.011.01.018.014l.018.017c.003.004.01.007.014.014.003.007.01.01.013.017.004.007.01.01.014.018a.06.06 0 0 1 .014.017l.014.02.01.018.011.02c.004.004.007.011.01.018l.011.024c.004.007.004.014.007.02.004.008.004.015.007.022.004.01.004.017.007.024 0 .007.004.014.004.02l.003.025c.004.007.004.013.004.02v3.937c0 1.05-.866 1.906-1.927 1.906h-9.36zm2.346 3.853a.957.957 0 0 0-.96-.95.959.959 0 0 0-.96.95c0 .522.432.95.96.95.527 0 .96-.425.96-.95zm7.519 0a.957.957 0 0 0-.96-.95.959.959 0 0 0-.96.95c0 .522.433.95.96.95.527 0 .96-.425.96-.95zm-3.162-8.043v1.527h2.037V15.58h-2.037zm0-.51h2.037v-.92l-2.037-.278v1.199zm3.64.51h-1.094v1.527h1.094V15.58zm0-.51v-.702l-1.094-.149v.852h1.094zm-6.186.51v1.527h2.037V15.58h-2.037zm0-.51h2.037v-1.267l-2.037-.278v1.546zm-2.546.51v1.527h2.037V15.58h-2.037zm0-.51h2.037v-1.614l-2.037-.278v1.893zm-2.596.51v1.527h2.087V15.58h-2.087zm0-.51h2.087v-1.96l-2.087-.285v2.246zm7.688 2.547v1.22h2.037v-1.22h-2.037zm3.64 0h-1.094v1.22h.11a.981.981 0 0 0 .984-.977v-.243zm-6.186 0v1.22h2.037v-1.22h-2.037zm-2.546 0v1.22h2.037v-1.22h-2.037zm-2.596 0v.246c0 .535.44.974.985.974h1.102v-1.22h-2.087z" fill="#FFA0BF" fill-rule="nonzero"/><path d="M305.752 12.27a6.11 6.11 0 1 1-12.221 0 6.11 6.11 0 0 1 12.22 0z" stroke="#656565" stroke-width=".5" fill="#FFF"/><text font-family="Lato-Bold, Lato" font-size="7.977" font-weight="bold" fill="#6D6D6D" transform="translate(293.531 6.16)"><tspan x="3.906" y="8.958">8</tspan></text></g><g fill="#121212" fill-rule="nonzero" mask="url(#b)"><path d="M68.459 19.323l-.075 2.988H59.67v-.344h.303c.313.026.627-.031.91-.165a.763.763 0 0 0 .326-.509c.064-.538.089-1.08.072-1.621v-4.983a10.285 10.285 0 0 0-.072-1.565.689.689 0 0 0-.303-.486 2.386 2.386 0 0 0-1.01-.135h-.226v-.346h4.923v.344h-.452a2.498 2.498 0 0 0-.99.125.649.649 0 0 0-.313.46 9.413 9.413 0 0 0-.08 1.603v5.316c-.016.464.004.929.06 1.39.04.184.16.342.329.43.177.102.562.155 1.154.155h.77a4.43 4.43 0 0 0 1.404-.165c.354-.15.656-.4.868-.718.35-.54.605-1.136.753-1.761l.363-.013zM75.461 21.189h.28c-.046.848-.469 1.272-1.269 1.272a1.174 1.174 0 0 1-.815-.27 1.346 1.346 0 0 1-.388-.796 7.965 7.965 0 0 1-1.382.801c-.35.164-.73.256-1.116.27a1.692 1.692 0 0 1-1.081-.359 1.154 1.154 0 0 1-.455-.951 1.668 1.668 0 0 1 .77-1.35 9.405 9.405 0 0 1 2.1-1.121l1.172-.471v-.298a3.627 3.627 0 0 0-.085-.921.95.95 0 0 0-.431-.51 1.663 1.663 0 0 0-.915-.223c-.756 0-1.176.25-1.262.748-.086.499-.297.753-.635.764-.308 0-.462-.145-.46-.436.002-.29.206-.595.612-.916.407-.325 1.043-.49 1.907-.49a3.06 3.06 0 0 1 1.49.3c.3.147.546.386.7.681.132.375.19.772.169 1.168v2.48c-.021.374.009.75.09 1.116a.375.375 0 0 0 .393.255c.331 0 .54-.255.62-.733l-.009-.01zm-2.184-2.611l-.825.33c-1.3.525-1.95 1.184-1.95 1.978-.012.277.079.549.257.763.16.18.392.28.634.275.289-.014.57-.093.823-.232.374-.195.728-.429 1.053-.697l.008-2.417zM82.153 16.178v4.02c0 .67.01 1.088.031 1.258a.508.508 0 0 0 .224.382c.215.102.453.146.691.127v.346c-.57-.02-1.138.06-1.678.24h-.093c-.16-.276-.246-.75-.257-1.423a3.324 3.324 0 0 1-1.056 1.07c-.395.24-.85.365-1.313.36a2.124 2.124 0 0 1-1.097-.28 1.533 1.533 0 0 1-.653-.685 3.18 3.18 0 0 1-.177-1.221v-2.09a12.71 12.71 0 0 0-.036-1.3.463.463 0 0 0-.24-.348 1.66 1.66 0 0 0-.737-.115v-.341h2.102v4.255c-.01.306.016.613.077.913.06.211.198.393.386.51.211.143.463.218.72.213a1.878 1.878 0 0 0 1.11-.38c.307-.2.556-.477.722-.803.146-.386.211-.797.192-1.209v-1.394c0-.669-.007-1.076-.023-1.222a.593.593 0 0 0-.192-.38 1.08 1.08 0 0 0-.707-.16h-.16v-.343h2.164zM85.965 17.496a2.56 2.56 0 0 1 .848-1.114 1.855 1.855 0 0 1 1.13-.45c.295-.015.581.097.787.307a.92.92 0 0 1 .288.629.529.529 0 0 1-.147.374.472.472 0 0 1-.36.157c-.257 0-.444-.183-.575-.554-.091-.25-.227-.374-.409-.374a1.252 1.252 0 0 0-.771.437c-.272.246-.473.56-.58.909-.098.425-.141.86-.13 1.295v1.092c0 .654 0 1.066.026 1.237a.508.508 0 0 0 .214.389c.206.108.44.155.673.135h.21v.346H83.88v-.344h.16c.222.017.445-.026.645-.124a.509.509 0 0 0 .231-.349c.036-.43.049-.86.039-1.29v-1.726c0-.659 0-1.07-.026-1.239a.533.533 0 0 0-.216-.39 1.19 1.19 0 0 0-.673-.14h-.16v-.335c.633-.092 1.255-.24 1.86-.443.165.506.247 1.034.243 1.565M94.964 18.255h-4.317c-.018.295-.031.508-.031.659 0 1.079.171 1.889.514 2.43.315.529.9.842 1.519.814a1.996 1.996 0 0 0 1.95-1.219h.363c-.157.5-.497.925-.954 1.189a3.032 3.032 0 0 1-3.058.03 3.165 3.165 0 0 1-1.146-1.112 3.255 3.255 0 0 1-.445-1.746 3.483 3.483 0 0 1 .861-2.415 2.772 2.772 0 0 1 2.156-.961 2.41 2.41 0 0 1 1.89.743c.417.429.667.992.703 1.588h-.005zm-1.318-.3c.014-.103.022-.206.023-.309a1.278 1.278 0 0 0-.36-.992 1.304 1.304 0 0 0-.987-.392c-.918 0-1.464.564-1.64 1.692h2.964zM97.26 15.931h.205c.132.411.198.84.195 1.273.316-.387.705-.71 1.144-.952a2.64 2.64 0 0 1 1.246-.316 2.18 2.18 0 0 1 1.213.308c.29.172.507.444.609.764.106.425.152.862.136 1.3v1.916c-.01.432.002.865.039 1.295a.466.466 0 0 0 .239.35c.233.095.486.136.737.116v.326h-3.168v-.344h.144c.248.03.5-.026.711-.157a.576.576 0 0 0 .188-.367c.015-.14.023-.552.023-1.237v-1.974a5.106 5.106 0 0 0-.072-1.039.967.967 0 0 0-.385-.55 1.294 1.294 0 0 0-.797-.239 1.907 1.907 0 0 0-1.054.326c-.377.261-.7.593-.948.977v2.502c-.011.432.003.865.041 1.295a.486.486 0 0 0 .242.349c.236.096.49.136.745.117v.34H95.55v-.343c.247.018.495-.018.727-.104a.462.462 0 0 0 .257-.318c.048-.445.064-.892.05-1.339V18.38c.01-.434-.003-.868-.042-1.3a.484.484 0 0 0-.241-.344 1.646 1.646 0 0 0-.748-.117v-.34a9.907 9.907 0 0 0 1.701-.344M107.78 12.157h4.765v.344h-.257a2.516 2.516 0 0 0-.992.125.644.644 0 0 0-.311.46 9.972 9.972 0 0 0-.075 1.603v6.634c.012.656-.023 1.312-.103 1.963a3.095 3.095 0 0 1-1.822 2.29 4.484 4.484 0 0 1-1.82.343c-.777 0-1.377-.14-1.798-.422a1.212 1.212 0 0 1-.627-1.018.835.835 0 0 1 .224-.59.723.723 0 0 1 .55-.24.775.775 0 0 1 .555.217.712.712 0 0 1 .223.532.947.947 0 0 1-.09.389.725.725 0 0 0-.082.27c.008.171.123.32.288.374.224.096.467.142.712.135a2.068 2.068 0 0 0 1.452-.542c.376-.332.627-.781.712-1.273.098-.809.138-1.623.12-2.438V14.69a10.257 10.257 0 0 0-.072-1.565.684.684 0 0 0-.303-.486 2.378 2.378 0 0 0-1.007-.135h-.242v-.346zM118.923 21.189h.27c-.045.848-.468 1.272-1.27 1.272a1.174 1.174 0 0 1-.814-.27 1.343 1.343 0 0 1-.38-.796c-.435.314-.901.583-1.39.804-.35.164-.73.256-1.116.27a1.692 1.692 0 0 1-1.082-.36 1.154 1.154 0 0 1-.455-.95 1.668 1.668 0 0 1 .771-1.35 9.384 9.384 0 0 1 2.1-1.122l1.171-.47v-.3a3.637 3.637 0 0 0-.082-.922.95.95 0 0 0-.432-.51 1.66 1.66 0 0 0-.914-.223c-.756 0-1.177.25-1.265.748-.087.499-.299.753-.635.764-.308 0-.462-.145-.462-.436 0-.29.205-.595.614-.916.408-.325 1.043-.49 1.904-.49a3.06 3.06 0 0 1 1.49.3c.303.146.55.385.705.681.133.375.19.772.17 1.168v2.48c-.022.373.007.748.087 1.114a.373.373 0 0 0 .393.254c.333 0 .539-.244.62-.733l.002-.007zm-2.197-2.614l-.825.331c-1.3.524-1.95 1.183-1.95 1.977-.013.277.079.55.256.764.161.189.4.295.65.287.29-.014.572-.093.825-.231.374-.196.727-.43 1.052-.698l-.008-2.43zM121.547 15.931h.074c.16.41.235.848.219 1.288.295-.392.666-.72 1.092-.967a2.59 2.59 0 0 1 1.26-.323c.439-.02.873.1 1.238.343.336.257.572.623.666 1.033a4.44 4.44 0 0 1 1.18-1.033 2.47 2.47 0 0 1 1.233-.343c.43-.013.854.102 1.218.33.29.165.505.433.604.749.085.447.12.901.105 1.356v1.842c-.011.435.002.87.041 1.303.022.147.111.275.242.346.236.093.491.131.745.112v.344h-3.084v-.344c.236.017.473-.02.692-.11a.461.461 0 0 0 .256-.327c.043-.44.058-.882.044-1.324v-2.035a4.575 4.575 0 0 0-.07-.934.929.929 0 0 0-.374-.54 1.294 1.294 0 0 0-.787-.224 1.78 1.78 0 0 0-.987.331c-.385.274-.72.61-.992.995v2.418c0 .654 0 1.066.026 1.231.01.149.083.287.2.38.202.111.433.16.664.14v.343h-3.002v-.344c.24.017.482-.019.707-.104a.461.461 0 0 0 .257-.32c.047-.443.063-.889.049-1.334v-1.7a7.523 7.523 0 0 0-.065-1.173 1.017 1.017 0 0 0-.408-.621 1.262 1.262 0 0 0-.81-.255 1.811 1.811 0 0 0-.956.3c-.377.247-.712.55-.994.899v2.545c0 .674 0 1.094.03 1.26.015.151.098.289.227.374.219.102.462.146.704.127v.346h-3.033v-.344c.239.017.478-.02.7-.11a.464.464 0 0 0 .256-.325c.044-.44.06-.883.047-1.326v-1.832c0-.7 0-1.127-.034-1.272a.473.473 0 0 0-.234-.357 1.532 1.532 0 0 0-.722-.12v-.355a8.394 8.394 0 0 0 1.778-.339M137.478 18.255h-4.32c-.021.295-.031.508-.031.659 0 1.079.171 1.889.514 2.43.316.53.9.842 1.521.814a1.996 1.996 0 0 0 1.95-1.219h.363c-.157.504-.5.93-.961 1.194a3.03 3.03 0 0 1-3.05.038 3.16 3.16 0 0 1-1.147-1.112 3.255 3.255 0 0 1-.444-1.746 3.488 3.488 0 0 1 .86-2.415 2.774 2.774 0 0 1 2.157-.962 2.408 2.408 0 0 1 1.883.736c.42.429.669.992.705 1.588v-.005zm-1.324-.3c.015-.103.022-.206.023-.309a1.278 1.278 0 0 0-.359-.992 1.304 1.304 0 0 0-.987-.392c-.919 0-1.466.564-1.643 1.692h2.966zM138.395 22.507V20.49h.296c.342 1.164.955 1.746 1.837 1.746.323.027.64-.096.858-.333.184-.213.285-.484.283-.764a1.073 1.073 0 0 0-.303-.786 4.89 4.89 0 0 0-1.2-.74 4.629 4.629 0 0 1-1.347-.899 1.518 1.518 0 0 1-.409-1.071 1.83 1.83 0 0 1 .44-1.156c.298-.369.757-.574 1.233-.55a1.653 1.653 0 0 1 1.34.652c.127-.165.227-.35.295-.547h.28v1.896h-.28a2.586 2.586 0 0 0-.586-1.17 1.334 1.334 0 0 0-1.028-.492.997.997 0 0 0-.732.278c-.18.167-.281.4-.28.643a.927.927 0 0 0 .308.698c.346.287.736.518 1.156.682.857.385 1.381.759 1.573 1.122.18.327.28.691.288 1.064a1.71 1.71 0 0 1-.532 1.303c-.361.34-.844.522-1.342.509a2.064 2.064 0 0 1-1.521-.698c-.156.189-.27.408-.331.644l-.296-.015zM49.806 12.997c0 1.17-.855 2.8-2.932 3.504-.03.425-.072.827-.133 1.209a5.12 5.12 0 0 1-1.064 2.438c1.197.537 2.356 1.135 3.546 1.135 1.324 0 1.784-.692 1.784-1.354a1.35 1.35 0 0 0-.43-1c-.02-.02-.051-.03-.051-.051 0-.02.02-.03.062-.05.316.268.5.658.503 1.07 0 .838-.77 1.665-2.19 1.665-1.186 0-2.428-.51-3.682-.96a3.97 3.97 0 0 1-2.68.983c-1.285 0-1.889-.56-1.889-1.128 0-.567.637-1.178 1.799-1.178 1.028 0 1.981.341 2.899.743a5.421 5.421 0 0 0 .709-2.468c.02-.3.03-.578.041-.858-.471.087-.95.129-1.429.125-2.269-.008-3.343-1.313-3.343-2.553 0-1.104.866-2.147 2.513-2.147.916.036 1.766.48 2.313 1.208.004.01.004.021 0 .03 0 .054-.116.054-.116.054a3.071 3.071 0 0 0-2.284-1.127c-1.429 0-2.17.919-2.17 1.911 0 1.176 1.029 2.458 3.162 2.458a6.99 6.99 0 0 0 1.367-.132c.03-.58.051-1.107.105-1.58.157-1.611.812-3.336 2.493-3.336.658 0 1.085.509 1.085 1.374m-4.806 7.527c-1.043-.382-2.087-.733-3.11-.733-.573 0-.981.382-.981.764 0 .435.49.888 1.773.888a3.045 3.045 0 0 0 2.313-.929m1.899-4.184c1.897-.659 2.714-2.178 2.714-3.265 0-.837-.375-1.272-.853-1.272-1.586 0-1.702 1.942-1.774 3.1-.04.526-.061.992-.084 1.455"/><path d="M54.283 12.98c.24-.367.644-.598 1.085-.622.156 0 .272.061.272.166 0 .33-.73.509-1.2.567-.542.911-.75 2.705-.856 4.413a4.992 4.992 0 0 1 1.313-.412s.095.02.095.04 0 0-.05.02c-.472.103-.93.255-1.368.456-.052.764-.062 1.527-.082 2.148-.052 1.527-.972 4.214-2.67 4.214-.992 0-1.378-.898-1.378-1.715 0-1.93 1.835-3.542 3.472-4.43.188-1.782.563-3.678 1.252-4.698-3.318.328-4.338 1.114-4.338 2.89 0 1.115.678 1.84 1.439 1.84a1.576 1.576 0 0 0 1.22-.692s.085 0 .085.02a.074.074 0 0 1-.02.041c-.304.465-.82.75-1.378.764-.948 0-1.866-.858-1.866-2.077 0-1.929 1.815-2.59 4.626-2.88a3.44 3.44 0 0 0 .345-.041m-1.375 4.944c-1.691.95-3.171 2.573-3.171 4.41 0 .642.256 1.5.991 1.5 1.689 0 1.992-2.902 2.056-3.988.02-.588.072-1.24.137-1.922m1.637-5c.688-.115.886-.255.886-.361 0-.041-.074-.072-.146-.072a.932.932 0 0 0-.74.433"/><path d="M48.493 8.416c4.952 0 8.967 3.976 8.967 8.88 0 4.903-4.015 8.878-8.967 8.878-4.952 0-8.966-3.975-8.966-8.879 0-4.903 4.014-8.879 8.966-8.879m0-.254c-5.094 0-9.223 4.089-9.223 9.133 0 5.044 4.13 9.133 9.223 9.133 5.094 0 9.224-4.089 9.224-9.133-.006-5.042-4.132-9.127-9.224-9.133"/></g><path d="M13.09 12.32h13.09a.77.77 0 0 1 0 1.54H13.09a.77.77 0 0 1 0-1.54zm0 3.08h9.24a.77.77 0 0 1 0 1.54h-9.24a.77.77 0 0 1 0-1.54zm0 3.08H23.1a.77.77 0 0 1 0 1.54H13.09a.77.77 0 1 1 0-1.54zm0 3.08h6.16a.77.77 0 1 1 0 1.54h-6.16a.77.77 0 1 1 0-1.54z" fill="#5B5B5B" mask="url(#b)"/></g></svg>
